# Blender v2.90.0 OBJ File: 'Game Assets.blend'
# www.blender.org
mtllib icosphere.mtl
o Icosphere
v 0.000002 -8.000000 0.000001
v 5.788815 -3.577728 4.205750
v -2.211078 -3.577728 6.805115
v -7.155398 -3.577728 0.000001
v -2.211078 -3.577728 -6.805115
v 5.788815 -3.577728 -4.205750
v 2.211087 3.577728 6.805115
v -5.788821 3.577728 4.205750
v -5.788821 3.577728 -4.205750
v 2.211087 3.577728 -6.805115
v 7.155393 3.577728 0.000001
v 0.000002 8.000000 0.000001
vt 0.204120 0.434332
vt 0.432336 0.244229
vt 0.432336 0.497699
vt 0.165140 0.126739
vt 0.281830 1.000000
vt 0.250000 0.748852
vt 0.500000 0.904069
vt 0.031830 0.497699
vt 0.250000 0.593629
vt 0.000000 0.748847
vt 0.000000 0.307593
vt 0.369263 0.000000
vt 0.781831 0.497699
vt 1.000000 0.593630
vt 0.750000 0.748852
vt 0.500000 0.593630
vt 0.250000 0.904069
vt 0.750000 0.904069
vt 0.531831 1.000000
vt 0.500000 0.748847
vt 1.000000 0.904069
vt 0.281831 0.497699
vt 0.801598 0.000000
vt 0.864671 0.244229
vt 0.597475 0.126739
vt 0.031831 1.000000
vt 0.750000 0.593629
vt 0.781830 1.000000
vt 0.864671 0.497699
vt 0.636456 0.434332
vt 0.432336 0.307593
vt 0.531830 0.497699
vn 0.1876 -0.7947 0.5774
vn 0.6071 -0.7947 0.0000
vn -0.4911 -0.7947 0.3568
vn -0.4911 -0.7947 -0.3568
vn 0.1876 -0.7947 -0.5774
vn 0.9822 -0.1876 0.0000
vn 0.3035 -0.1876 0.9342
vn -0.7946 -0.1876 0.5774
vn -0.7946 -0.1876 -0.5774
vn 0.3035 -0.1876 -0.9342
vn 0.7946 0.1876 0.5774
vn -0.3035 0.1876 0.9342
vn -0.9822 0.1876 0.0000
vn -0.3035 0.1876 -0.9342
vn 0.7946 0.1876 -0.5774
vn 0.4911 0.7947 0.3568
vn -0.1876 0.7947 0.5774
vn -0.6071 0.7947 0.0000
vn -0.1876 0.7947 -0.5774
vn 0.4911 0.7947 -0.3568
usemtl None
s off
f 1/1/1 2/2/1 3/3/1
f 2/2/2 1/1/2 6/4/2
f 1/5/3 3/6/3 4/7/3
f 1/8/4 4/9/4 5/10/4
f 1/1/5 5/11/5 6/4/5
f 2/2/6 6/4/6 11/12/6
f 3/13/7 2/14/7 7/15/7
f 4/7/8 3/6/8 8/16/8
f 5/10/9 4/9/9 9/17/9
f 6/18/10 5/19/10 10/20/10
f 2/14/11 11/21/11 7/15/11
f 3/6/12 7/22/12 8/16/12
f 4/23/13 8/24/13 9/25/13
f 5/10/14 9/17/14 10/26/14
f 6/18/15 10/20/15 11/27/15
f 7/15/16 11/21/16 12/28/16
f 8/24/17 7/29/17 12/30/17
f 9/25/18 8/24/18 12/30/18
f 10/31/19 9/25/19 12/30/19
f 11/27/20 10/20/20 12/32/20
