# Blender v2.90.0 OBJ File: 'test.blend'
# www.blender.org
mtllib stone.mtl
o Stone_Cube.001
v 0.222032 -0.354780 -0.461784
v 0.433027 -0.367880 0.190816
v 0.069871 0.469854 -0.246982
v -0.519020 -0.100935 0.227327
v 0.220173 0.502568 0.198400
v 0.497980 -0.168720 0.040278
v -0.392530 -0.405422 -0.134508
v -0.415857 -0.371590 0.243388
v -0.168128 -0.214702 0.520560
v 0.307723 -0.087197 0.385956
v -0.130310 -0.521062 0.343912
v -0.018892 -0.452547 0.044114
v -0.221563 -0.069661 -0.474611
v 0.215468 0.326948 -0.416351
v 0.448685 -0.403982 -0.200609
v 0.217967 -0.403204 0.386550
v 0.389913 -0.280526 -0.400769
v -0.392426 0.058724 0.459195
v -0.091525 -0.454249 -0.394503
v 0.043205 0.409992 0.434071
v -0.459797 -0.010295 -0.181778
v -0.321377 0.336830 -0.247579
vt 0.821910 0.972973
vt 0.680749 0.756674
vt 0.899519 0.616330
vt 0.422882 0.512315
vt 0.572016 0.524140
vt 0.337408 0.624128
vt 0.197335 0.494551
vt 0.292525 0.585233
vt 0.000000 0.715236
vt 1.000000 0.412643
vt 0.897267 0.314418
vt 0.925401 0.088539
vt 0.292525 0.882371
vt 0.202651 1.000000
vt 0.035902 0.339745
vt 0.093340 0.166277
vt 0.242690 0.468418
vt 0.691082 0.520557
vt 0.860491 0.512315
vt 0.434971 0.973654
vt 0.361238 0.946593
vt 0.340920 0.835396
vt 0.528603 0.691197
vt 0.680749 0.781506
vt 0.566763 0.927257
vt 0.301855 0.171838
vt 0.406108 0.502077
vt 0.337408 0.177785
vt 0.475927 0.113085
vt 0.660859 0.419236
vt 0.419205 0.015658
vt 0.579686 0.000000
vt 0.807753 0.453611
vt 0.660859 0.075832
vt 0.749648 0.217308
vt 0.660859 0.341844
vt 0.815256 0.030504
vt 1.000000 0.000000
vt 0.680749 0.577331
vt 0.090774 0.000000
vt 0.236018 0.016825
vt 0.015416 0.937068
vt 0.337408 0.007754
vt 0.000000 0.116103
vt 0.337408 0.494551
vt 0.592433 0.512315
vt 0.687573 0.972973
vt 0.897148 0.957924
vn 0.0718 0.0670 -0.9952
vn 0.2990 -0.9410 0.1587
vn -0.8528 0.5095 0.1148
vn -0.9310 0.3609 -0.0548
vn -0.3609 0.9279 0.0935
vn -0.0730 0.1610 0.9843
vn -0.2183 0.6453 -0.7321
vn 0.4968 -0.6659 -0.5566
vn -0.2945 -0.9526 0.0761
vn -0.1376 -0.9901 0.0266
vn 0.2606 0.0453 0.9644
vn 0.8703 0.2619 0.4172
vn 0.9065 0.4040 -0.1223
vn 0.9619 -0.2661 0.0630
vn 0.8807 0.0672 0.4689
vn -0.7459 0.1757 -0.6425
vn 0.9666 0.0540 -0.2505
vn 0.9215 0.2572 -0.2910
vn -0.6429 -0.3584 -0.6770
vn -0.7635 -0.2558 0.5930
vn -0.4767 -0.8777 0.0491
vn -0.9657 -0.1861 -0.1810
vn 0.0606 -0.4930 0.8679
vn -0.3217 0.9460 0.0391
vn 0.2913 -0.0810 0.9532
vn 0.2933 -0.9550 -0.0449
vn 0.6777 -0.1911 0.7101
vn -0.5034 -0.4774 0.7202
vn 0.6983 0.3090 0.6457
vn -0.7793 -0.2036 -0.5927
vn -0.9336 -0.3574 -0.0256
vn -0.6010 0.7625 0.2396
vn -0.6025 -0.3313 0.7261
vn -0.2652 0.4197 -0.8681
vn 0.2109 -0.9736 -0.0877
vn 0.5257 0.8169 -0.2374
vn -0.1289 -0.2438 -0.9612
vn 0.3149 0.0661 -0.9468
vn -0.0139 -0.9736 -0.2277
vn 0.2251 -0.9647 -0.1368
usemtl UV_Test
s off
f 1/1/1 13/2/1 14/3/1
f 16/4/2 11/5/2 2/6/2
f 4/7/3 18/8/3 22/9/3
f 22/10/4 21/11/4 4/12/4
f 20/13/5 5/14/5 22/9/5
f 18/15/6 9/16/6 20/17/6
f 14/3/7 22/18/7 3/19/7
f 1/20/8 17/21/8 15/22/8
f 1/20/9 15/22/9 2/6/9
f 12/23/10 7/24/10 19/25/10
f 20/17/11 9/16/11 10/26/11
f 5/27/12 10/28/12 6/29/12
f 5/27/13 6/29/13 14/30/13
f 6/29/14 2/31/14 15/32/14
f 6/29/15 10/28/15 2/31/15
f 13/33/16 21/11/16 22/10/16
f 17/34/17 6/29/17 15/32/17
f 17/34/18 14/30/18 6/29/18
f 7/35/19 13/33/19 19/36/19
f 4/12/20 8/37/20 18/38/20
f 8/39/21 7/24/21 11/5/21
f 7/35/22 4/12/22 21/11/22
f 9/16/23 11/40/23 16/41/23
f 3/42/24 22/9/24 5/14/24
f 10/26/25 9/16/25 16/41/25
f 1/20/26 12/23/26 19/25/26
f 10/26/27 16/41/27 2/43/27
f 8/44/28 11/40/28 9/16/28
f 10/26/29 5/45/29 20/17/29
f 7/35/30 21/11/30 13/33/30
f 7/35/31 8/37/31 4/12/31
f 18/8/32 20/13/32 22/9/32
f 18/15/33 8/44/33 9/16/33
f 14/3/34 13/2/34 22/18/34
f 12/23/35 1/20/35 2/6/35
f 3/46/36 5/27/36 14/30/36
f 13/2/37 1/1/37 19/47/37
f 1/1/38 14/3/38 17/48/38
f 11/5/39 7/24/39 12/23/39
f 12/23/40 2/6/40 11/5/40
