# Blender v2.90.0 OBJ File: 'test.blend'
# www.blender.org
mtllib test.mtl
o Main_Cube_Plane.001
v -0.500000 0.500000 -0.500000
v -0.500000 -0.500000 -0.500000
v -0.500000 0.500000 0.500000
v -0.500000 -0.500000 0.500000
v 0.500000 -0.500000 0.500000
v 0.500000 0.500000 0.500000
v 0.500000 -0.500000 -0.500000
v 0.500000 0.500000 -0.500000
vt 0.375000 0.625000
vt 0.625000 0.375000
vt 0.375000 0.375000
vt 0.375000 0.625000
vt 0.625000 0.375000
vt 0.375000 0.375000
vt 0.625000 0.625000
vt 0.375000 0.375000
vt 0.625000 0.625000
vt 0.625000 0.375000
vt 0.625000 0.625000
vt 0.375000 0.625000
vt 0.625000 0.375000
vt 0.625000 0.625000
vt 0.375000 0.625000
vt 0.375000 0.375000
vn -1.0000 0.0000 0.0000
vn 0.0000 0.0000 -1.0000
vn 1.0000 0.0000 0.0000
vn 0.0000 0.0000 1.0000
vn 0.0000 -1.0000 0.0000
vn 0.0000 1.0000 0.0000
usemtl UV_Test
s off
f 3/1/1 2/2/1 4/3/1
f 1/4/2 7/5/2 2/6/2
f 8/7/3 5/8/3 7/5/3
f 6/9/4 4/3/4 5/10/4
f 7/11/5 4/3/5 2/12/5
f 1/4/6 6/13/6 8/7/6
f 3/1/1 1/14/1 2/2/1
f 1/4/2 8/7/2 7/5/2
f 8/7/3 6/15/3 5/8/3
f 6/9/4 3/1/4 4/3/4
f 7/11/5 5/10/5 4/3/5
f 1/4/6 3/16/6 6/13/6
