# Blender v2.79 (sub 0) OBJ File: 'test.blend'
# www.blender.org
mtllib test.mtl
o Plane
v 0.000000 0.000000 0.001591
v 0.000000 0.250000 0.001591
v -0.250000 0.000000 0.001591
v 0.000000 -0.250000 0.001591
v 0.250000 0.000000 0.001591
v -0.250000 0.250000 0.001591
v 0.250000 0.250000 0.001591
v -0.250000 -0.250000 0.001591
v 0.250000 -0.250000 0.001591
v -0.125000 0.000000 0.001591
v 0.000000 -0.125000 0.001591
v 0.125000 -0.250000 0.001591
v -0.125000 0.250000 0.001591
v -0.250000 -0.125000 0.001591
v 0.125000 0.000000 0.001591
v 0.000000 0.125000 0.001591
v 0.250000 0.125000 0.001591
v 0.250000 -0.125000 0.001591
v -0.250000 0.125000 0.001591
v 0.125000 0.250000 0.001591
v -0.125000 -0.250000 0.001591
v 0.125000 -0.125000 0.001591
v -0.125000 -0.125000 0.001591
v 0.125000 0.125000 0.001591
v -0.125000 0.125000 0.001591
v -0.062500 0.000000 0.001591
v 0.000000 -0.062500 0.001591
v 0.062500 -0.250000 0.001591
v -0.062500 0.250000 0.001591
v -0.250000 -0.062500 0.001591
v 0.187500 0.000000 0.001591
v 0.000000 0.187500 0.001591
v 0.250000 0.062500 0.001591
v 0.250000 -0.187500 0.001591
v -0.250000 0.187500 0.001591
v 0.187500 0.250000 0.001591
v -0.187500 -0.250000 0.001591
v -0.187500 0.000000 0.001591
v 0.000000 -0.187500 0.001591
v 0.187500 -0.250000 0.001591
v -0.187500 0.250000 0.001591
v -0.250000 -0.187500 0.001591
v 0.062500 0.000000 0.001591
v 0.000000 0.062500 0.001591
v 0.250000 0.187500 0.001591
v 0.250000 -0.062500 0.001591
v -0.250000 0.062500 0.001591
v 0.062500 0.250000 0.001591
v -0.062500 -0.250000 0.001591
v 0.125000 -0.062500 0.001591
v 0.125000 -0.187500 0.001591
v 0.187500 -0.125000 0.001591
v 0.062500 -0.125000 0.001591
v -0.125000 -0.062500 0.001591
v -0.125000 -0.187500 0.001591
v -0.062500 -0.125000 0.001591
v -0.187500 -0.125000 0.001591
v 0.125000 0.187500 0.001591
v 0.125000 0.062500 0.001591
v 0.187500 0.125000 0.001591
v 0.062500 0.125000 0.001591
v -0.125000 0.187500 0.001591
v -0.125000 0.062500 0.001591
v -0.062500 0.125000 0.001591
v -0.187500 0.125000 0.001591
v -0.187500 0.062500 0.001591
v -0.062500 0.062500 0.001591
v -0.062500 0.187500 0.001591
v 0.062500 0.062500 0.001591
v 0.187500 0.062500 0.001591
v 0.187500 0.187500 0.001591
v -0.187500 -0.187500 0.001591
v -0.062500 -0.187500 0.001591
v -0.062500 -0.062500 0.001591
v 0.062500 -0.187500 0.001591
v 0.187500 -0.187500 0.001591
v 0.187500 -0.062500 0.001591
v 0.062500 -0.062500 0.001591
v -0.187500 -0.062500 0.001591
v 0.062500 0.187500 0.001591
v -0.187500 0.187500 0.001591
v -0.200000 0.200000 -0.028409
v -0.200000 0.325000 -0.028409
v -0.325000 0.200000 -0.028409
v -0.200000 0.075000 -0.028409
v -0.075000 0.200000 -0.028409
v -0.325000 0.325000 -0.028409
v -0.075000 0.325000 -0.028409
v -0.325000 0.075000 -0.028409
v -0.075000 0.075000 -0.028409
v -0.262500 0.200000 -0.028409
v -0.200000 0.137500 -0.028409
v -0.137500 0.075000 -0.028409
v -0.262500 0.325000 -0.028409
v -0.325000 0.137500 -0.028409
v -0.137500 0.200000 -0.028409
v -0.200000 0.262500 -0.028409
v -0.075000 0.262500 -0.028409
v -0.075000 0.137500 -0.028409
v -0.325000 0.262500 -0.028409
v -0.137500 0.325000 -0.028409
v -0.262500 0.075000 -0.028409
v -0.137500 0.137500 -0.028409
v -0.262500 0.137500 -0.028409
v -0.137500 0.262500 -0.028409
v -0.262500 0.262500 -0.028409
v -0.231250 0.200000 -0.028409
v -0.200000 0.168750 -0.028409
v -0.168750 0.075000 -0.028409
v -0.231250 0.325000 -0.028409
v -0.325000 0.168750 -0.028409
v -0.106250 0.200000 -0.028409
v -0.200000 0.293750 -0.028409
v -0.075000 0.231250 -0.028409
v -0.075000 0.106250 -0.028409
v -0.325000 0.293750 -0.028409
v -0.106250 0.325000 -0.028409
v -0.293750 0.075000 -0.028409
v -0.293750 0.200000 -0.028409
v -0.200000 0.106250 -0.028409
v -0.106250 0.075000 -0.028409
v -0.293750 0.325000 -0.028409
v -0.325000 0.106250 -0.028409
v -0.168750 0.200000 -0.028409
v -0.200000 0.231250 -0.028409
v -0.075000 0.293750 -0.028409
v -0.075000 0.168750 -0.028409
v -0.325000 0.231250 -0.028409
v -0.168750 0.325000 -0.028409
v -0.231250 0.075000 -0.028409
v -0.137500 0.168750 -0.028409
v -0.137500 0.106250 -0.028409
v -0.106250 0.137500 -0.028409
v -0.168750 0.137500 -0.028409
v -0.262500 0.168750 -0.028409
v -0.262500 0.106250 -0.028409
v -0.231250 0.137500 -0.028409
v -0.293750 0.137500 -0.028409
v -0.137500 0.293750 -0.028409
v -0.137500 0.231250 -0.028409
v -0.106250 0.262500 -0.028409
v -0.168750 0.262500 -0.028409
v -0.262500 0.293750 -0.028409
v -0.262500 0.231250 -0.028409
v -0.231250 0.262500 -0.028409
v -0.293750 0.262500 -0.028409
v -0.293750 0.231250 -0.028409
v -0.231250 0.231250 -0.028409
v -0.231250 0.293750 -0.028409
v -0.168750 0.231250 -0.028409
v -0.106250 0.231250 -0.028409
v -0.106250 0.293750 -0.028409
v -0.293750 0.106250 -0.028409
v -0.231250 0.106250 -0.028409
v -0.231250 0.168750 -0.028409
v -0.168750 0.106250 -0.028409
v -0.106250 0.106250 -0.028409
v -0.106250 0.168750 -0.028409
v -0.168750 0.168750 -0.028409
v -0.293750 0.168750 -0.028409
v -0.168750 0.293750 -0.028409
v -0.293750 0.293750 -0.028409
v 0.200000 0.200000 0.031591
v 0.111612 0.288388 0.031591
v 0.111612 0.111612 0.031591
v 0.288388 0.111612 0.031591
v 0.288388 0.288388 0.031591
v 0.023223 0.200000 0.031591
v 0.200000 0.376777 0.031591
v 0.200000 0.023223 0.031591
v 0.376777 0.200000 0.031591
v 0.155806 0.155806 0.031591
v 0.244194 0.155806 0.031591
v 0.332582 0.155806 0.031591
v 0.067417 0.244194 0.031591
v 0.155806 0.067418 0.031591
v 0.244194 0.244194 0.031591
v 0.155806 0.244194 0.031591
v 0.244194 0.332583 0.031591
v 0.332582 0.244194 0.031591
v 0.067417 0.155806 0.031591
v 0.155806 0.332583 0.031591
v 0.244194 0.067418 0.031591
v 0.288388 0.200000 0.031591
v 0.200000 0.111612 0.031591
v 0.200000 0.288388 0.031591
v 0.111612 0.200000 0.031591
v 0.177903 0.177903 0.031591
v 0.222097 0.177903 0.031591
v 0.310485 0.133709 0.031591
v 0.089514 0.266291 0.031591
v 0.133709 0.089515 0.031591
v 0.266291 0.266291 0.031591
v 0.133709 0.266291 0.031591
v 0.266291 0.310486 0.031591
v 0.354679 0.222097 0.031591
v 0.045320 0.177903 0.031591
v 0.177903 0.354680 0.031591
v 0.222097 0.045320 0.031591
v 0.133709 0.133709 0.031591
v 0.266291 0.133709 0.031591
v 0.354679 0.177903 0.031591
v 0.045320 0.222097 0.031591
v 0.177903 0.045320 0.031591
v 0.222097 0.222097 0.031591
v 0.177903 0.222097 0.031591
v 0.222097 0.354680 0.031591
v 0.310485 0.266291 0.031591
v 0.089514 0.133709 0.031591
v 0.133709 0.310486 0.031591
v 0.266291 0.089515 0.031591
v 0.266291 0.222097 0.031591
v 0.310485 0.177903 0.031591
v 0.310485 0.222097 0.031591
v 0.266291 0.177903 0.031591
v 0.177903 0.133709 0.031591
v 0.222097 0.089515 0.031591
v 0.222097 0.133709 0.031591
v 0.177903 0.089515 0.031591
v 0.177903 0.310486 0.031591
v 0.222097 0.266291 0.031591
v 0.222097 0.310486 0.031591
v 0.177903 0.266291 0.031591
v 0.089514 0.222097 0.031591
v 0.133709 0.177903 0.031591
v 0.133709 0.222097 0.031591
v 0.089514 0.177903 0.031591
v 0.111612 0.155806 0.031591
v 0.155806 0.200000 0.031591
v 0.111612 0.244194 0.031591
v 0.200000 0.244194 0.031591
v 0.244194 0.288388 0.031591
v 0.200000 0.332583 0.031591
v 0.200000 0.067418 0.031591
v 0.244194 0.111612 0.031591
v 0.200000 0.155806 0.031591
v 0.288388 0.155806 0.031591
v 0.332582 0.200000 0.031591
v 0.288388 0.244194 0.031591
v 0.244194 0.200000 0.031591
v 0.155806 0.111612 0.031591
v 0.155806 0.288388 0.031591
v 0.067417 0.200000 0.031591
vt 0.000000 0.562500
vt 0.088481 0.500000
vt 0.088481 0.562500
vt 0.353926 0.562500
vt 0.442407 0.500000
vt 0.442407 0.562500
vt 0.000000 0.812500
vt 0.088482 0.750000
vt 0.088482 0.812500
vt 0.353926 0.812500
vt 0.442407 0.750000
vt 0.442407 0.812500
vt 0.530889 0.812500
vt 0.619370 0.750000
vt 0.619370 0.812500
vt 0.530889 0.937500
vt 0.619370 0.875000
vt 0.619370 0.937500
vt 0.353926 0.937500
vt 0.442407 0.875000
vt 0.442407 0.937500
vt 0.176963 0.812500
vt 0.265444 0.750000
vt 0.265444 0.812500
vt 0.176963 0.937500
vt 0.265444 0.875000
vt 0.265444 0.937500
vt 0.000000 0.937500
vt 0.088482 0.875000
vt 0.088482 0.937500
vt 0.530889 0.562500
vt 0.619370 0.500000
vt 0.619370 0.562500
vt 0.530889 0.687500
vt 0.619370 0.625000
vt 0.619370 0.687500
vt 0.353926 0.687500
vt 0.442407 0.625000
vt 0.442407 0.687500
vt 0.176963 0.562500
vt 0.265444 0.500000
vt 0.265444 0.562500
vt 0.176963 0.687500
vt 0.265444 0.625000
vt 0.265444 0.687500
vt 0.000000 0.687500
vt 0.088481 0.625000
vt 0.088482 0.687500
vt 0.176963 0.625000
vt 0.176963 0.750000
vt 0.000000 0.750000
vt 0.353926 0.625000
vt 0.353926 0.750000
vt 0.353926 0.500000
vt 0.530889 0.625000
vt 0.530889 0.750000
vt 0.707852 0.625000
vt 0.707852 0.687500
vt 0.707852 0.750000
vt 0.707852 0.500000
vt 0.707852 0.562500
vt 0.176963 0.875000
vt 0.088482 1.000000
vt 0.176963 1.000000
vt 0.000000 1.000000
vt 0.353926 0.875000
vt 0.265444 1.000000
vt 0.353926 1.000000
vt 0.530889 0.875000
vt 0.442407 1.000000
vt 0.530889 1.000000
vt 0.707852 0.875000
vt 0.707852 0.937500
vt 0.619370 1.000000
vt 0.707852 1.000000
vt 0.707852 0.812500
vt 0.000000 0.875000
vt 0.530889 0.500000
vt 0.176963 0.500000
vt 0.000000 0.625000
vt 0.000000 0.562500
vt 0.088481 0.500000
vt 0.088481 0.562500
vt 0.353926 0.562500
vt 0.442407 0.500000
vt 0.442407 0.562500
vt 0.000000 0.812500
vt 0.088482 0.750000
vt 0.088482 0.812500
vt 0.353926 0.812500
vt 0.442407 0.750000
vt 0.442407 0.812500
vt 0.530889 0.812500
vt 0.619370 0.750000
vt 0.619370 0.812500
vt 0.530889 0.937500
vt 0.619370 0.875000
vt 0.619370 0.937500
vt 0.353926 0.937500
vt 0.442407 0.875000
vt 0.442407 0.937500
vt 0.176963 0.812500
vt 0.265444 0.750000
vt 0.265444 0.812500
vt 0.176963 0.937500
vt 0.265444 0.875000
vt 0.265444 0.937500
vt 0.000000 0.937500
vt 0.088482 0.875000
vt 0.088482 0.937500
vt 0.530889 0.562500
vt 0.619370 0.500000
vt 0.619370 0.562500
vt 0.530889 0.687500
vt 0.619370 0.625000
vt 0.619370 0.687500
vt 0.353926 0.687500
vt 0.442407 0.625000
vt 0.442407 0.687500
vt 0.176963 0.562500
vt 0.265444 0.500000
vt 0.265444 0.562500
vt 0.176963 0.687500
vt 0.265444 0.625000
vt 0.265444 0.687500
vt 0.000000 0.687500
vt 0.088481 0.625000
vt 0.088482 0.687500
vt 0.176963 0.625000
vt 0.176963 0.750000
vt 0.000000 0.750000
vt 0.353926 0.625000
vt 0.353926 0.750000
vt 0.353926 0.500000
vt 0.530889 0.625000
vt 0.530889 0.750000
vt 0.707852 0.625000
vt 0.707852 0.687500
vt 0.707852 0.750000
vt 0.707852 0.500000
vt 0.707852 0.562500
vt 0.176963 0.875000
vt 0.088482 1.000000
vt 0.176963 1.000000
vt 0.000000 1.000000
vt 0.353926 0.875000
vt 0.265444 1.000000
vt 0.353926 1.000000
vt 0.530889 0.875000
vt 0.442407 1.000000
vt 0.530889 1.000000
vt 0.707852 0.875000
vt 0.707852 0.937500
vt 0.619370 1.000000
vt 0.707852 1.000000
vt 0.707852 0.812500
vt 0.000000 0.875000
vt 0.530889 0.500000
vt 0.176963 0.500000
vt 0.000000 0.625000
vt 0.000000 0.562500
vt 0.088481 0.500000
vt 0.088481 0.562500
vt 0.442407 0.562500
vt 0.353926 0.500000
vt 0.442407 0.500000
vt 0.000000 0.812500
vt 0.088482 0.750000
vt 0.088482 0.812500
vt 0.353926 0.812500
vt 0.442407 0.750000
vt 0.442407 0.812500
vt 0.530889 0.812500
vt 0.619370 0.750000
vt 0.619370 0.812500
vt 0.530889 0.937500
vt 0.619370 0.875000
vt 0.619370 0.937500
vt 0.442407 0.937500
vt 0.353926 0.875000
vt 0.442407 0.875000
vt 0.176963 0.812500
vt 0.265444 0.750000
vt 0.265444 0.812500
vt 0.176963 0.937500
vt 0.265444 0.875000
vt 0.265444 0.937500
vt 0.000000 0.937500
vt 0.088482 0.875000
vt 0.088482 0.937500
vt 0.530889 0.562500
vt 0.619370 0.500000
vt 0.619370 0.562500
vt 0.530889 0.687500
vt 0.619370 0.625000
vt 0.619370 0.687500
vt 0.353926 0.687500
vt 0.442407 0.625000
vt 0.442407 0.687500
vt 0.176963 0.562500
vt 0.265444 0.500000
vt 0.265444 0.562500
vt 0.176963 0.687500
vt 0.265444 0.625000
vt 0.265444 0.687500
vt 0.088482 0.687500
vt 0.000000 0.625000
vt 0.088481 0.625000
vt 0.176963 0.625000
vt 0.176963 0.750000
vt 0.000000 0.750000
vt 0.353926 0.625000
vt 0.353926 0.750000
vt 0.353926 0.562500
vt 0.530889 0.625000
vt 0.530889 0.750000
vt 0.707852 0.687500
vt 0.707852 0.625000
vt 0.707852 0.750000
vt 0.707852 0.500000
vt 0.707852 0.562500
vt 0.176963 0.875000
vt 0.176963 1.000000
vt 0.088482 1.000000
vt 0.353926 0.937500
vt 0.265444 1.000000
vt 0.353926 1.000000
vt 0.530889 0.875000
vt 0.530889 1.000000
vt 0.442407 1.000000
vt 0.707852 0.875000
vt 0.707852 0.937500
vt 0.619370 1.000000
vt 0.707852 1.000000
vt 0.707852 0.812500
vt 0.000000 0.875000
vt 0.530889 0.500000
vt 0.176963 0.500000
vt 0.000000 0.500000
vt 0.000000 0.500000
vt 0.000000 0.500000
vt 0.000000 0.687500
vt 0.000000 1.000000
vn -0.0000 0.0000 -1.0000
usemtl None
s off
f 35/1/1 41/2/1 81/3/1
f 32/4/1 48/5/1 80/6/1
f 30/7/1 38/8/1 79/9/1
f 27/10/1 43/11/1 78/12/1
f 50/13/1 31/14/1 77/15/1
f 51/16/1 52/17/1 76/18/1
f 39/19/1 53/20/1 75/21/1
f 54/22/1 26/23/1 74/24/1
f 55/25/1 56/26/1 73/27/1
f 42/28/1 57/29/1 72/30/1
f 58/31/1 36/32/1 71/33/1
f 59/34/1 60/35/1 70/36/1
f 44/37/1 61/38/1 69/39/1
f 62/40/1 29/41/1 68/42/1
f 63/43/1 64/44/1 67/45/1
f 47/46/1 65/47/1 66/48/1
f 66/48/1 25/49/1 63/43/1
f 38/8/1 63/43/1 10/50/1
f 3/51/1 66/48/1 38/8/1
f 67/45/1 16/52/1 44/37/1
f 26/23/1 44/37/1 1/53/1
f 10/50/1 67/45/1 26/23/1
f 68/42/1 2/54/1 32/4/1
f 64/44/1 32/4/1 16/52/1
f 25/49/1 68/42/1 64/44/1
f 69/39/1 24/55/1 59/34/1
f 43/11/1 59/34/1 15/56/1
f 1/53/1 69/39/1 43/11/1
f 70/36/1 17/57/1 33/58/1
f 31/14/1 33/58/1 5/59/1
f 15/56/1 70/36/1 31/14/1
f 71/33/1 7/60/1 45/61/1
f 60/35/1 45/61/1 17/57/1
f 24/55/1 71/33/1 60/35/1
f 72/30/1 23/62/1 55/25/1
f 37/63/1 55/25/1 21/64/1
f 8/65/1 72/30/1 37/63/1
f 73/27/1 11/66/1 39/19/1
f 49/67/1 39/19/1 4/68/1
f 21/64/1 73/27/1 49/67/1
f 74/24/1 1/53/1 27/10/1
f 56/26/1 27/10/1 11/66/1
f 23/62/1 74/24/1 56/26/1
f 75/21/1 22/69/1 51/16/1
f 28/70/1 51/16/1 12/71/1
f 4/68/1 75/21/1 28/70/1
f 76/18/1 18/72/1 34/73/1
f 40/74/1 34/73/1 9/75/1
f 12/71/1 76/18/1 40/74/1
f 77/15/1 5/59/1 46/76/1
f 52/17/1 46/76/1 18/72/1
f 22/69/1 77/15/1 52/17/1
f 78/12/1 15/56/1 50/13/1
f 53/20/1 50/13/1 22/69/1
f 11/66/1 78/12/1 53/20/1
f 79/9/1 10/50/1 54/22/1
f 57/29/1 54/22/1 23/62/1
f 14/77/1 79/9/1 57/29/1
f 80/6/1 20/78/1 58/31/1
f 61/38/1 58/31/1 24/55/1
f 16/52/1 80/6/1 61/38/1
f 81/3/1 13/79/1 62/40/1
f 65/47/1 62/40/1 25/49/1
f 19/80/1 81/3/1 65/47/1
f 116/81/1 122/82/1 162/83/1
f 113/84/1 129/85/1 161/86/1
f 111/87/1 119/88/1 160/89/1
f 108/90/1 124/91/1 159/92/1
f 131/93/1 112/94/1 158/95/1
f 132/96/1 133/97/1 157/98/1
f 120/99/1 134/100/1 156/101/1
f 135/102/1 107/103/1 155/104/1
f 136/105/1 137/106/1 154/107/1
f 123/108/1 138/109/1 153/110/1
f 139/111/1 117/112/1 152/113/1
f 140/114/1 141/115/1 151/116/1
f 125/117/1 142/118/1 150/119/1
f 143/120/1 110/121/1 149/122/1
f 144/123/1 145/124/1 148/125/1
f 128/126/1 146/127/1 147/128/1
f 147/128/1 106/129/1 144/123/1
f 119/88/1 144/123/1 91/130/1
f 84/131/1 147/128/1 119/88/1
f 148/125/1 97/132/1 125/117/1
f 107/103/1 125/117/1 82/133/1
f 91/130/1 148/125/1 107/103/1
f 149/122/1 83/134/1 113/84/1
f 145/124/1 113/84/1 97/132/1
f 106/129/1 149/122/1 145/124/1
f 150/119/1 105/135/1 140/114/1
f 124/91/1 140/114/1 96/136/1
f 82/133/1 150/119/1 124/91/1
f 151/116/1 98/137/1 114/138/1
f 112/94/1 114/138/1 86/139/1
f 96/136/1 151/116/1 112/94/1
f 152/113/1 88/140/1 126/141/1
f 141/115/1 126/141/1 98/137/1
f 105/135/1 152/113/1 141/115/1
f 153/110/1 104/142/1 136/105/1
f 118/143/1 136/105/1 102/144/1
f 89/145/1 153/110/1 118/143/1
f 154/107/1 92/146/1 120/99/1
f 130/147/1 120/99/1 85/148/1
f 102/144/1 154/107/1 130/147/1
f 155/104/1 82/133/1 108/90/1
f 137/106/1 108/90/1 92/146/1
f 104/142/1 155/104/1 137/106/1
f 156/101/1 103/149/1 132/96/1
f 109/150/1 132/96/1 93/151/1
f 85/148/1 156/101/1 109/150/1
f 157/98/1 99/152/1 115/153/1
f 121/154/1 115/153/1 90/155/1
f 93/151/1 157/98/1 121/154/1
f 158/95/1 86/139/1 127/156/1
f 133/97/1 127/156/1 99/152/1
f 103/149/1 158/95/1 133/97/1
f 159/92/1 96/136/1 131/93/1
f 134/100/1 131/93/1 103/149/1
f 92/146/1 159/92/1 134/100/1
f 160/89/1 91/130/1 135/102/1
f 138/109/1 135/102/1 104/142/1
f 95/157/1 160/89/1 138/109/1
f 161/86/1 101/158/1 139/111/1
f 142/118/1 139/111/1 105/135/1
f 97/132/1 161/86/1 142/118/1
f 162/83/1 94/159/1 143/120/1
f 146/127/1 143/120/1 106/129/1
f 100/160/1 162/83/1 146/127/1
f 197/161/1 203/162/1 243/163/1
f 242/164/1 164/165/1 210/166/1
f 192/167/1 200/168/1 241/169/1
f 189/170/1 205/171/1 240/172/1
f 212/173/1 193/174/1 239/175/1
f 213/176/1 214/177/1 238/178/1
f 237/179/1 173/180/1 215/181/1
f 216/182/1 188/183/1 236/184/1
f 217/185/1 218/186/1 235/187/1
f 204/188/1 219/189/1 234/190/1
f 220/191/1 198/192/1 233/193/1
f 221/194/1 222/195/1 232/196/1
f 206/197/1 223/198/1 231/199/1
f 224/200/1 191/201/1 230/202/1
f 225/203/1 226/204/1 229/205/1
f 228/206/1 181/207/1 227/208/1
f 225/203/1 227/208/1 187/209/1
f 200/168/1 225/203/1 172/210/1
f 165/211/1 228/206/1 200/168/1
f 229/205/1 178/212/1 206/197/1
f 188/183/1 206/197/1 163/213/1
f 172/210/1 229/205/1 188/183/1
f 230/202/1 164/165/1 194/214/1
f 226/204/1 194/214/1 178/212/1
f 187/209/1 230/202/1 226/204/1
f 221/194/1 223/198/1 186/215/1
f 205/171/1 221/194/1 177/216/1
f 163/213/1 231/199/1 205/171/1
f 195/217/1 222/195/1 179/218/1
f 167/219/1 232/196/1 195/217/1
f 193/174/1 221/194/1 232/196/1
f 233/193/1 169/220/1 207/221/1
f 179/218/1 233/193/1 207/221/1
f 186/215/1 233/193/1 222/195/1
f 234/190/1 185/222/1 217/185/1
f 183/223/1 234/190/1 217/185/1
f 199/224/1 204/188/1 234/190/1
f 201/225/1 218/186/1 173/180/1
f 211/226/1 201/225/1 166/227/1
f 211/226/1 217/185/1 235/187/1
f 189/170/1 188/183/1 163/213/1
f 173/180/1 236/184/1 189/170/1
f 185/222/1 236/184/1 218/186/1
f 213/176/1 215/181/1 184/228/1
f 174/229/1 237/179/1 213/176/1
f 166/227/1 237/179/1 190/230/1
f 238/178/1 180/231/1 196/232/1
f 202/233/1 196/232/1 171/234/1
f 174/229/1 238/178/1 202/233/1
f 208/235/1 193/174/1 167/219/1
f 214/177/1 208/235/1 180/231/1
f 184/228/1 239/175/1 214/177/1
f 212/173/1 205/171/1 177/216/1
f 215/181/1 212/173/1 184/228/1
f 215/181/1 189/170/1 240/172/1
f 241/169/1 172/210/1 216/182/1
f 219/189/1 216/182/1 185/222/1
f 176/236/1 241/169/1 219/189/1
f 242/164/1 182/237/1 220/191/1
f 223/198/1 220/191/1 186/215/1
f 178/212/1 242/164/1 223/198/1
f 243/163/1 175/238/1 224/200/1
f 227/208/1 224/200/1 187/209/1
f 181/207/1 243/163/1 227/208/1
f 35/1/1 6/239/1 41/2/1
f 32/4/1 2/54/1 48/5/1
f 30/7/1 3/51/1 38/8/1
f 27/10/1 1/53/1 43/11/1
f 50/13/1 15/56/1 31/14/1
f 51/16/1 22/69/1 52/17/1
f 39/19/1 11/66/1 53/20/1
f 54/22/1 10/50/1 26/23/1
f 55/25/1 23/62/1 56/26/1
f 42/28/1 14/77/1 57/29/1
f 58/31/1 20/78/1 36/32/1
f 59/34/1 24/55/1 60/35/1
f 44/37/1 16/52/1 61/38/1
f 62/40/1 13/79/1 29/41/1
f 63/43/1 25/49/1 64/44/1
f 47/46/1 19/80/1 65/47/1
f 66/48/1 65/47/1 25/49/1
f 38/8/1 66/48/1 63/43/1
f 3/51/1 47/46/1 66/48/1
f 67/45/1 64/44/1 16/52/1
f 26/23/1 67/45/1 44/37/1
f 10/50/1 63/43/1 67/45/1
f 68/42/1 29/41/1 2/54/1
f 64/44/1 68/42/1 32/4/1
f 25/49/1 62/40/1 68/42/1
f 69/39/1 61/38/1 24/55/1
f 43/11/1 69/39/1 59/34/1
f 1/53/1 44/37/1 69/39/1
f 70/36/1 60/35/1 17/57/1
f 31/14/1 70/36/1 33/58/1
f 15/56/1 59/34/1 70/36/1
f 71/33/1 36/32/1 7/60/1
f 60/35/1 71/33/1 45/61/1
f 24/55/1 58/31/1 71/33/1
f 72/30/1 57/29/1 23/62/1
f 37/63/1 72/30/1 55/25/1
f 8/65/1 42/28/1 72/30/1
f 73/27/1 56/26/1 11/66/1
f 49/67/1 73/27/1 39/19/1
f 21/64/1 55/25/1 73/27/1
f 74/24/1 26/23/1 1/53/1
f 56/26/1 74/24/1 27/10/1
f 23/62/1 54/22/1 74/24/1
f 75/21/1 53/20/1 22/69/1
f 28/70/1 75/21/1 51/16/1
f 4/68/1 39/19/1 75/21/1
f 76/18/1 52/17/1 18/72/1
f 40/74/1 76/18/1 34/73/1
f 12/71/1 51/16/1 76/18/1
f 77/15/1 31/14/1 5/59/1
f 52/17/1 77/15/1 46/76/1
f 22/69/1 50/13/1 77/15/1
f 78/12/1 43/11/1 15/56/1
f 53/20/1 78/12/1 50/13/1
f 11/66/1 27/10/1 78/12/1
f 79/9/1 38/8/1 10/50/1
f 57/29/1 79/9/1 54/22/1
f 14/77/1 30/7/1 79/9/1
f 80/6/1 48/5/1 20/78/1
f 61/38/1 80/6/1 58/31/1
f 16/52/1 32/4/1 80/6/1
f 81/3/1 41/2/1 13/79/1
f 65/47/1 81/3/1 62/40/1
f 19/80/1 35/1/1 81/3/1
f 116/81/1 87/240/1 122/82/1
f 113/84/1 83/134/1 129/85/1
f 111/87/1 84/131/1 119/88/1
f 108/90/1 82/133/1 124/91/1
f 131/93/1 96/136/1 112/94/1
f 132/96/1 103/149/1 133/97/1
f 120/99/1 92/146/1 134/100/1
f 135/102/1 91/130/1 107/103/1
f 136/105/1 104/142/1 137/106/1
f 123/108/1 95/157/1 138/109/1
f 139/111/1 101/158/1 117/112/1
f 140/114/1 105/135/1 141/115/1
f 125/117/1 97/132/1 142/118/1
f 143/120/1 94/159/1 110/121/1
f 144/123/1 106/129/1 145/124/1
f 128/126/1 100/160/1 146/127/1
f 147/128/1 146/127/1 106/129/1
f 119/88/1 147/128/1 144/123/1
f 84/131/1 128/126/1 147/128/1
f 148/125/1 145/124/1 97/132/1
f 107/103/1 148/125/1 125/117/1
f 91/130/1 144/123/1 148/125/1
f 149/122/1 110/121/1 83/134/1
f 145/124/1 149/122/1 113/84/1
f 106/129/1 143/120/1 149/122/1
f 150/119/1 142/118/1 105/135/1
f 124/91/1 150/119/1 140/114/1
f 82/133/1 125/117/1 150/119/1
f 151/116/1 141/115/1 98/137/1
f 112/94/1 151/116/1 114/138/1
f 96/136/1 140/114/1 151/116/1
f 152/113/1 117/112/1 88/140/1
f 141/115/1 152/113/1 126/141/1
f 105/135/1 139/111/1 152/113/1
f 153/110/1 138/109/1 104/142/1
f 118/143/1 153/110/1 136/105/1
f 89/145/1 123/108/1 153/110/1
f 154/107/1 137/106/1 92/146/1
f 130/147/1 154/107/1 120/99/1
f 102/144/1 136/105/1 154/107/1
f 155/104/1 107/103/1 82/133/1
f 137/106/1 155/104/1 108/90/1
f 104/142/1 135/102/1 155/104/1
f 156/101/1 134/100/1 103/149/1
f 109/150/1 156/101/1 132/96/1
f 85/148/1 120/99/1 156/101/1
f 157/98/1 133/97/1 99/152/1
f 121/154/1 157/98/1 115/153/1
f 93/151/1 132/96/1 157/98/1
f 158/95/1 112/94/1 86/139/1
f 133/97/1 158/95/1 127/156/1
f 103/149/1 131/93/1 158/95/1
f 159/92/1 124/91/1 96/136/1
f 134/100/1 159/92/1 131/93/1
f 92/146/1 108/90/1 159/92/1
f 160/89/1 119/88/1 91/130/1
f 138/109/1 160/89/1 135/102/1
f 95/157/1 111/87/1 160/89/1
f 161/86/1 129/85/1 101/158/1
f 142/118/1 161/86/1 139/111/1
f 97/132/1 113/84/1 161/86/1
f 162/83/1 122/82/1 94/159/1
f 146/127/1 162/83/1 143/120/1
f 100/160/1 116/81/1 162/83/1
f 197/161/1 168/241/1 203/162/1
f 242/164/1 194/214/1 164/165/1
f 192/167/1 165/211/1 200/168/1
f 189/170/1 163/213/1 205/171/1
f 212/173/1 177/216/1 193/174/1
f 213/176/1 184/228/1 214/177/1
f 237/179/1 201/225/1 173/180/1
f 216/182/1 172/210/1 188/183/1
f 217/185/1 185/222/1 218/186/1
f 204/188/1 176/236/1 219/189/1
f 220/191/1 182/237/1 198/192/1
f 221/194/1 186/215/1 222/195/1
f 206/197/1 178/212/1 223/198/1
f 224/200/1 175/238/1 191/201/1
f 225/203/1 187/209/1 226/204/1
f 228/206/1 209/242/1 181/207/1
f 225/203/1 228/206/1 227/208/1
f 200/168/1 228/206/1 225/203/1
f 165/211/1 209/242/1 228/206/1
f 229/205/1 226/204/1 178/212/1
f 188/183/1 229/205/1 206/197/1
f 172/210/1 225/203/1 229/205/1
f 230/202/1 191/201/1 164/165/1
f 226/204/1 230/202/1 194/214/1
f 187/209/1 224/200/1 230/202/1
f 221/194/1 231/199/1 223/198/1
f 205/171/1 231/199/1 221/194/1
f 163/213/1 206/197/1 231/199/1
f 195/217/1 232/196/1 222/195/1
f 167/219/1 193/174/1 232/196/1
f 193/174/1 177/216/1 221/194/1
f 233/193/1 198/192/1 169/220/1
f 179/218/1 222/195/1 233/193/1
f 186/215/1 220/191/1 233/193/1
f 234/190/1 219/189/1 185/222/1
f 183/223/1 199/224/1 234/190/1
f 199/224/1 170/243/1 204/188/1
f 201/225/1 235/187/1 218/186/1
f 211/226/1 235/187/1 201/225/1
f 211/226/1 183/223/1 217/185/1
f 189/170/1 236/184/1 188/183/1
f 173/180/1 218/186/1 236/184/1
f 185/222/1 216/182/1 236/184/1
f 213/176/1 237/179/1 215/181/1
f 174/229/1 190/230/1 237/179/1
f 166/227/1 201/225/1 237/179/1
f 238/178/1 214/177/1 180/231/1
f 202/233/1 238/178/1 196/232/1
f 174/229/1 213/176/1 238/178/1
f 208/235/1 239/175/1 193/174/1
f 214/177/1 239/175/1 208/235/1
f 184/228/1 212/173/1 239/175/1
f 212/173/1 240/172/1 205/171/1
f 215/181/1 240/172/1 212/173/1
f 215/181/1 173/180/1 189/170/1
f 241/169/1 200/168/1 172/210/1
f 219/189/1 241/169/1 216/182/1
f 176/236/1 192/167/1 241/169/1
f 242/164/1 210/166/1 182/237/1
f 223/198/1 242/164/1 220/191/1
f 178/212/1 194/214/1 242/164/1
f 243/163/1 203/162/1 175/238/1
f 227/208/1 243/163/1 224/200/1
f 181/207/1 197/161/1 243/163/1
